<svg width="500" height="151" viewBox="0 0 500 151" fill="none" xmlns="http://www.w3.org/2000/svg">
<g clip-path="url(#clip0_679_20)">
<path d="M425 0H75C33.5786 0 0 33.6123 0 75.0751C0 116.538 33.5786 150.15 75 150.15H425C466.421 150.15 500 116.538 500 75.0751C500 33.6123 466.421 0 425 0Z" fill="#181E26"/>
<path d="M300.134 58.9215H286.804V95.9293H281.364V58.9215H268.062V54.4165H300.134V58.9215ZM321.24 95.9293C320.936 95.3212 320.69 94.2376 320.5 92.679C318.05 95.2261 315.126 96.4995 311.727 96.4995C308.689 96.4995 306.192 95.644 304.236 93.9336C302.299 92.2039 301.33 90.018 301.33 87.3757C301.33 84.1634 302.546 81.6734 304.976 79.9058C307.426 78.119 310.863 77.2256 315.287 77.2256H320.414V74.8023C320.414 72.9584 319.864 71.4949 318.762 70.4113C317.661 69.3089 316.037 68.758 313.892 68.758C312.012 68.758 310.436 69.233 309.163 70.1831C307.891 71.1337 307.255 72.2836 307.255 73.6333H301.957C301.957 72.0938 302.498 70.6111 303.581 69.1855C304.682 67.7407 306.163 66.6004 308.024 65.7641C309.904 64.9279 311.964 64.5095 314.205 64.5095C317.756 64.5095 320.537 65.4029 322.55 67.1897C324.563 68.9573 325.607 71.3998 325.684 74.5171V88.7158C325.684 91.5478 326.045 93.8005 326.766 95.473V95.9293H321.24ZM312.496 91.909C314.148 91.909 315.715 91.4815 317.196 90.6261C318.677 89.7706 319.75 88.6587 320.414 87.2902V80.9606H316.284C309.828 80.9606 306.6 82.8521 306.6 86.6346C306.6 88.2883 307.15 89.5809 308.252 90.5122C309.353 91.4436 310.768 91.909 312.496 91.909ZM360.034 80.8467C360.034 85.5606 358.952 89.3527 356.787 92.2227C354.622 95.0739 351.717 96.4995 348.071 96.4995C344.179 96.4995 341.169 95.1214 339.042 92.3653L338.786 95.9293H333.944V52.1355H339.213V68.4727C341.34 65.8304 344.274 64.5095 348.014 64.5095C351.755 64.5095 354.689 65.9255 356.815 68.758C358.961 71.59 360.034 75.4676 360.034 80.3904V80.8467ZM354.765 80.2478C354.765 76.6554 354.072 73.8802 352.685 71.9224C351.299 69.9646 349.305 68.9857 346.704 68.9857C343.229 68.9857 340.732 70.6015 339.213 73.8326V87.1764C340.827 90.4075 343.343 92.0233 346.761 92.0233C349.287 92.0233 351.252 91.0444 352.657 89.0866C354.062 87.1288 354.765 84.1826 354.765 80.2478ZM367.525 95.9293V54.4165H381.083C385.583 54.4165 388.963 55.3479 391.223 57.2106C393.502 59.0733 394.641 61.8294 394.641 65.4788C394.641 67.4179 394.09 69.1379 392.989 70.6394C391.888 72.1222 390.387 73.2721 388.489 74.0895C390.73 74.7168 392.495 75.9143 393.787 77.6819C395.097 79.4307 395.752 81.5216 395.752 83.9544C395.752 87.6798 394.546 90.6073 392.135 92.7361C389.723 94.8649 386.315 95.9293 381.909 95.9293H367.525ZM372.994 76.5128V91.4532H382.023C384.567 91.4532 386.571 90.7971 388.033 89.4858C389.514 88.1553 390.255 86.3305 390.255 84.0115C390.255 79.0124 387.539 76.5128 382.109 76.5128H372.994ZM372.994 72.1222H381.254C383.647 72.1222 385.555 71.5232 386.979 70.3258C388.422 69.1283 389.144 67.5034 389.144 65.4505C389.144 63.1695 388.479 61.5157 387.15 60.4893C385.821 59.4441 383.799 58.9215 381.083 58.9215H372.994V72.1222ZM422.071 95.9293C421.767 95.3212 421.521 94.2376 421.329 92.679C418.879 95.2261 415.956 96.4995 412.557 96.4995C409.519 96.4995 407.022 95.644 405.066 93.9336C403.129 92.2039 402.161 90.018 402.161 87.3757C402.161 84.1634 403.376 81.6734 405.807 79.9058C408.256 78.119 411.693 77.2256 416.117 77.2256H421.246V74.8023C421.246 72.9584 420.692 71.4949 419.592 70.4113C418.492 69.3089 416.867 68.758 414.722 68.758C412.842 68.758 411.266 69.233 409.993 70.1831C408.721 71.1337 408.085 72.2836 408.085 73.6333H402.787C402.787 72.0938 403.328 70.6111 404.411 69.1855C405.512 67.7407 406.993 66.6004 408.854 65.7641C410.734 64.9279 412.794 64.5095 415.035 64.5095C418.587 64.5095 421.367 65.4029 423.379 67.1897C425.392 68.9573 426.437 71.3998 426.512 74.5171V88.7158C426.512 91.5478 426.875 93.8005 427.596 95.473V95.9293H422.071ZM413.326 91.909C414.978 91.909 416.545 91.4815 418.025 90.6261C419.508 89.7706 420.579 88.6587 421.246 87.2902V80.9606H417.112C410.658 80.9606 407.43 82.8521 407.43 86.6346C407.43 88.2883 407.981 89.5809 409.082 90.5122C410.183 91.4436 411.598 91.909 413.326 91.909ZM449.671 69.8128C448.871 69.6797 448.008 69.613 447.079 69.613C443.621 69.613 441.279 71.0861 440.042 74.0324V95.9293H434.775V65.0797H439.9L439.987 68.6437C441.712 65.8876 444.162 64.5095 447.333 64.5095C448.358 64.5095 449.137 64.6426 449.671 64.9087V69.8128Z" fill="white"/>
<path d="M179.167 16.6833H75C42.7834 16.6833 16.6667 42.8262 16.6667 75.0751C16.6667 107.324 42.7834 133.467 75 133.467H179.167C211.383 133.467 237.5 107.324 237.5 75.0751C237.5 42.8262 211.383 16.6833 179.167 16.6833Z" fill="#163338"/>
<path d="M94.5921 82.1013C94.2696 86.5679 92.6175 90.0843 89.6362 92.6506C86.6741 95.2165 82.7625 96.4995 77.9012 96.4995C72.5841 96.4995 68.3975 94.7127 65.34 91.1395C62.3021 87.5468 60.7829 82.6239 60.7829 76.3702V73.8326C60.7829 69.8411 61.4854 66.3247 62.8908 63.2837C64.2958 60.2424 66.2991 57.9138 68.9004 56.298C71.5208 54.6634 74.5591 53.8464 78.015 53.8464C82.8004 53.8464 86.655 55.1293 89.5791 57.6952C92.5033 60.2611 94.1933 63.8631 94.6491 68.501H86.1042C85.8954 65.8209 85.1454 63.8822 83.8541 62.6848C82.5821 61.4682 80.6354 60.8601 78.015 60.8601C75.1666 60.8601 73.0304 61.8865 71.6062 63.9394C70.2012 65.9731 69.4796 69.1379 69.4416 73.4335V76.5699C69.4416 81.0557 70.1158 84.3348 71.4641 86.4064C72.8312 88.4781 74.9771 89.5141 77.9012 89.5141C80.5408 89.5141 82.5058 88.9156 83.7971 87.7178C85.1075 86.5015 85.8575 84.6293 86.0475 82.1013H94.5921ZM117.521 95.9293C117.141 95.1881 116.866 94.266 116.695 93.1636C114.701 95.3875 112.109 96.4995 108.919 96.4995C105.9 96.4995 103.394 95.6252 101.4 93.8764C99.425 92.1276 98.4375 89.9229 98.4375 87.2619C98.4375 83.9924 99.6433 81.4836 102.055 79.7348C104.485 77.9859 107.989 77.1021 112.565 77.083H116.353V75.3154C116.353 73.8898 115.983 72.7495 115.242 71.894C114.521 71.0386 113.372 70.6111 111.796 70.6111C110.41 70.6111 109.318 70.9435 108.52 71.6087C107.742 72.2744 107.352 73.1866 107.352 74.346H99.1212C99.1212 72.5593 99.6716 70.9055 100.773 69.3848C101.875 67.8646 103.432 66.6763 105.444 65.8209C107.457 64.9466 109.717 64.5095 112.223 64.5095C116.021 64.5095 119.031 65.4693 121.252 67.3891C123.493 69.2902 124.613 71.9699 124.613 75.4296V88.8013C124.632 91.7284 125.041 93.9432 125.838 95.4447V95.9293H117.521ZM110.714 90.1986C111.929 90.1986 113.049 89.9325 114.075 89.4003C115.1 88.8489 115.86 88.1173 116.353 87.2047V81.9015H113.277C109.157 81.9015 106.963 83.3271 106.697 86.1783L106.669 86.663C106.669 87.6894 107.03 88.5352 107.752 89.2005C108.473 89.8657 109.46 90.1986 110.714 90.1986ZM148.255 72.8066C147.134 72.6544 146.147 72.5784 145.292 72.5784C142.178 72.5784 140.137 73.6333 139.168 75.7433V95.9293H130.937V65.0797H138.712L138.94 68.758C140.592 65.9255 142.88 64.5095 145.805 64.5095C146.716 64.5095 147.571 64.633 148.368 64.8803L148.255 72.8066ZM150.391 80.2766C150.391 75.4676 151.463 71.6375 153.609 68.7863C155.774 65.9351 158.727 64.5095 162.467 64.5095C165.467 64.5095 167.946 65.6311 169.902 67.8737V52.1355H178.162V95.9293H170.727L170.329 92.6506C168.278 95.2165 165.639 96.4995 162.41 96.4995C158.784 96.4995 155.869 95.0739 153.666 92.2227C151.482 89.3527 150.391 85.3704 150.391 80.2766ZM158.622 80.8751C158.622 83.7642 159.125 85.9789 160.132 87.5184C161.138 89.0579 162.6 89.8278 164.518 89.8278C167.063 89.8278 168.857 88.7538 169.902 86.6058V74.4315C168.876 72.2836 167.101 71.2096 164.575 71.2096C160.607 71.2096 158.622 74.4316 158.622 80.8751Z" fill="white"/>
</g>
<defs>
<clipPath id="clip0_679_20">
<rect width="500" height="150.15" fill="white"/>
</clipPath>
</defs>
</svg>
